<svg width="32" height="32" viewBox="0 0 32 32" fill="none" xmlns="http://www.w3.org/2000/svg">
<rect width="32" height="32" rx="5" fill="#FFF48F"/>
<path d="M25.5625 16.7959C25.4064 18.6129 24.7345 20.3474 23.626 21.7955C22.5175 23.2436 21.0184 24.3449 19.3052 24.97C17.592 25.595 15.7359 25.7177 13.9554 25.3237C12.1748 24.9297 10.5438 24.0353 9.25428 22.7457C7.96477 21.4562 7.07038 19.8252 6.67634 18.0447C6.28231 16.2641 6.40503 14.408 7.03007 12.6948C7.6551 10.9816 8.75644 9.48256 10.2045 8.37405C11.6526 7.26554 13.3871 6.59367 15.2041 6.4375C15.3533 6.42507 15.5013 6.47241 15.6156 6.5691C15.7298 6.6658 15.801 6.80394 15.8135 6.95312C15.8259 7.10231 15.7786 7.25032 15.6819 7.3646C15.5852 7.47888 15.447 7.55007 15.2978 7.5625C13.694 7.69984 12.1628 8.29244 10.8844 9.27057C9.60595 10.2487 8.63352 11.5716 8.0815 13.0837C7.52949 14.5958 7.42087 16.2341 7.76843 17.8058C8.11598 19.3775 8.90525 20.8173 10.0434 21.9556C11.1815 23.0939 12.621 23.8835 14.1927 24.2314C15.7643 24.5793 17.4027 24.471 18.9148 23.9193C20.427 23.3676 21.7502 22.3954 22.7286 21.1172C23.7069 19.8389 24.2999 18.3078 24.4375 16.7041C24.4437 16.6302 24.4643 16.5583 24.4983 16.4924C24.5322 16.4265 24.5788 16.3679 24.6354 16.32C24.7497 16.2233 24.8977 16.176 25.0469 16.1884C25.1208 16.1946 25.1927 16.2152 25.2586 16.2492C25.3245 16.2831 25.383 16.3297 25.4309 16.3863C25.4788 16.4429 25.5151 16.5084 25.5376 16.579C25.5602 16.6496 25.5687 16.7239 25.5625 16.7978V16.7959ZM15.4375 10.75V16C15.4375 16.1492 15.4968 16.2923 15.6023 16.3977C15.7078 16.5032 15.8508 16.5625 16 16.5625H21.25C21.3992 16.5625 21.5423 16.5032 21.6478 16.3977C21.7533 16.2923 21.8125 16.1492 21.8125 16C21.8125 15.8508 21.7533 15.7077 21.6478 15.6023C21.5423 15.4968 21.3992 15.4375 21.25 15.4375H16.5625V10.75C16.5625 10.6008 16.5033 10.4577 16.3978 10.3523C16.2923 10.2468 16.1492 10.1875 16 10.1875C15.8508 10.1875 15.7078 10.2468 15.6023 10.3523C15.4968 10.4577 15.4375 10.6008 15.4375 10.75ZM19 8.3125C19.1854 8.3125 19.3667 8.25751 19.5209 8.1545C19.675 8.05149 19.7952 7.90507 19.8662 7.73376C19.9371 7.56246 19.9557 7.37396 19.9195 7.1921C19.8833 7.01024 19.7941 6.8432 19.6629 6.71209C19.5318 6.58097 19.3648 6.49169 19.1829 6.45551C19.0011 6.41934 18.8126 6.4379 18.6413 6.50886C18.47 6.57982 18.3235 6.69998 18.2205 6.85415C18.1175 7.00832 18.0625 7.18958 18.0625 7.375C18.0625 7.49811 18.0868 7.62002 18.1339 7.73376C18.181 7.84751 18.2501 7.95086 18.3371 8.03791C18.5129 8.21373 18.7514 8.3125 19 8.3125ZM22.375 10.5625C22.5604 10.5625 22.7417 10.5075 22.8959 10.4045C23.05 10.3015 23.1702 10.1551 23.2412 9.98376C23.3121 9.81246 23.3307 9.62396 23.2945 9.4421C23.2583 9.26024 23.1691 9.0932 23.0379 8.96209C22.9068 8.83097 22.7398 8.74169 22.5579 8.70551C22.3761 8.66934 22.1876 8.6879 22.0163 8.75886C21.845 8.82982 21.6985 8.94998 21.5955 9.10415C21.4925 9.25832 21.4375 9.43958 21.4375 9.625C21.4375 9.87364 21.5363 10.1121 21.7121 10.2879C21.8879 10.4637 22.1264 10.5625 22.375 10.5625ZM24.625 13.9375C24.8104 13.9375 24.9917 13.8825 25.1459 13.7795C25.3 13.6765 25.4202 13.5301 25.4912 13.3588C25.5621 13.1875 25.5807 12.999 25.5445 12.8171C25.5083 12.6352 25.4191 12.4682 25.2879 12.3371C25.1568 12.206 24.9898 12.1167 24.8079 12.0805C24.6261 12.0443 24.4376 12.0629 24.2663 12.1339C24.095 12.2048 23.9485 12.325 23.8455 12.4792C23.7425 12.6333 23.6875 12.8146 23.6875 13C23.6875 13.2486 23.7863 13.4871 23.9621 13.6629C24.1379 13.8387 24.3764 13.9375 24.625 13.9375Z" fill="black"/>
</svg>
