<svg width="32" height="32" viewBox="0 0 32 32" fill="none" xmlns="http://www.w3.org/2000/svg">
<rect width="32" height="32" rx="5" fill="#8CF268" fill-opacity="0.44"/>
<path d="M17.8938 11.9013L9.49376 20.1513C9.38861 20.2543 9.24725 20.312 9.10001 20.312C8.95277 20.312 8.81141 20.2543 8.70626 20.1513L5.10626 16.6159C5.05351 16.5642 5.01145 16.5026 4.9825 16.4347C4.95355 16.3667 4.93827 16.2937 4.93753 16.2199C4.93679 16.146 4.9506 16.0727 4.97819 16.0042C5.00577 15.9356 5.04658 15.8732 5.09829 15.8205C5.15 15.7677 5.21159 15.7257 5.27955 15.6967C5.34751 15.6678 5.42051 15.6525 5.49437 15.6517C5.56824 15.651 5.64153 15.6648 5.71006 15.6924C5.77858 15.72 5.84101 15.7608 5.89376 15.8125L9.10001 18.9606L17.1063 11.0978C17.1583 11.0431 17.2208 10.9995 17.2901 10.9695C17.3593 10.9395 17.4339 10.9238 17.5094 10.9232C17.5849 10.9226 17.6597 10.9372 17.7294 10.9662C17.7991 10.9951 17.8623 11.0378 17.9151 11.0917C17.968 11.1456 18.0095 11.2095 18.0371 11.2798C18.0647 11.35 18.078 11.4251 18.076 11.5005C18.074 11.576 18.0568 11.6503 18.0255 11.719C17.9942 11.7876 17.9494 11.8493 17.8938 11.9003V11.9013ZM26.9013 11.1063C26.7968 10.9999 26.6544 10.9394 26.5053 10.938C26.3562 10.9366 26.2127 10.9944 26.1063 11.0988L18.1 18.9616L16.2034 17.0988C16.1508 17.047 16.0884 17.0061 16.0199 16.9784C15.9514 16.9508 15.8781 16.9369 15.8043 16.9375C15.7304 16.9382 15.6574 16.9534 15.5894 16.9822C15.5214 17.0111 15.4597 17.0531 15.408 17.1058C15.3562 17.1585 15.3153 17.2209 15.2877 17.2893C15.26 17.3578 15.2461 17.4311 15.2467 17.505C15.2474 17.5788 15.2626 17.6519 15.2915 17.7198C15.3203 17.7878 15.3623 17.8495 15.415 17.9013L17.7063 20.1513C17.8114 20.2543 17.9528 20.312 18.1 20.312C18.2472 20.312 18.3886 20.2543 18.4938 20.1513L26.8938 11.9013C27.0001 11.7968 27.0606 11.6544 27.062 11.5053C27.0634 11.3562 27.0056 11.2127 26.9013 11.1063Z" fill="black"/>
</svg>
