<svg width="32" height="32" viewBox="0 0 32 32" fill="none" xmlns="http://www.w3.org/2000/svg">
<rect width="32" height="32" rx="5" fill="#7094F4" fill-opacity="0.26"/>
<path d="M11.5 7.9375C10.7954 7.9375 10.1066 8.14644 9.52078 8.53789C8.93493 8.92934 8.47832 9.48573 8.20868 10.1367C7.93904 10.7877 7.86849 11.504 8.00595 12.195C8.14341 12.8861 8.48271 13.5208 8.98093 14.0191C9.47916 14.5173 10.1139 14.8566 10.805 14.9941C11.4961 15.1315 12.2123 15.061 12.8633 14.7913C13.5143 14.5217 14.0707 14.0651 14.4621 13.4792C14.8536 12.8934 15.0625 12.2046 15.0625 11.5C15.0625 10.5552 14.6872 9.64903 14.0191 8.98093C13.351 8.31284 12.4448 7.9375 11.5 7.9375ZM11.5 13.9375C11.0179 13.9375 10.5466 13.7945 10.1458 13.5267C9.74495 13.2589 9.43253 12.8782 9.24805 12.4328C9.06356 11.9874 9.01529 11.4973 9.10934 11.0245C9.20339 10.5516 9.43554 10.1173 9.77643 9.77643C10.1173 9.43554 10.5516 9.20339 11.0245 9.10934C11.4973 9.01529 11.9874 9.06356 12.4328 9.24805C12.8782 9.43253 13.2589 9.74495 13.5267 10.1458C13.7945 10.5466 13.9375 11.0179 13.9375 11.5C13.9375 11.8201 13.8745 12.1371 13.752 12.4328C13.6295 12.7285 13.4499 12.9972 13.2236 13.2236C12.9972 13.4499 12.7285 13.6295 12.4328 13.752C12.1371 13.8745 11.8201 13.9375 11.5 13.9375ZM20.5 15.0625C21.2046 15.0625 21.8934 14.8536 22.4792 14.4621C23.0651 14.0707 23.5217 13.5143 23.7913 12.8633C24.061 12.2123 24.1315 11.4961 23.994 10.805C23.8566 10.1139 23.5173 9.47916 23.0191 8.98093C22.5208 8.48271 21.8861 8.14341 21.195 8.00595C20.504 7.86849 19.7877 7.93904 19.1367 8.20868C18.4857 8.47832 17.9293 8.93493 17.5379 9.52078C17.1464 10.1066 16.9375 10.7954 16.9375 11.5C16.9375 12.4448 17.3128 13.351 17.9809 14.0191C18.649 14.6872 19.5552 15.0625 20.5 15.0625ZM20.5 9.0625C20.9821 9.0625 21.4534 9.20546 21.8542 9.47329C22.255 9.74113 22.5675 10.1218 22.752 10.5672C22.9364 11.0126 22.9847 11.5027 22.8907 11.9755C22.7966 12.4484 22.5645 12.8827 22.2236 13.2236C21.8827 13.5645 21.4484 13.7966 20.9755 13.8907C20.5027 13.9847 20.0126 13.9364 19.5672 13.752C19.1218 13.5675 18.7411 13.255 18.4733 12.8542C18.2055 12.4534 18.0625 11.9821 18.0625 11.5C18.0625 10.8535 18.3193 10.2335 18.7764 9.77643C19.2335 9.31931 19.8535 9.0625 20.5 9.0625ZM11.5 16.9375C10.7954 16.9375 10.1066 17.1464 9.52078 17.5379C8.93493 17.9293 8.47832 18.4857 8.20868 19.1367C7.93904 19.7877 7.86849 20.504 8.00595 21.195C8.14341 21.8861 8.48271 22.5208 8.98093 23.0191C9.47916 23.5173 10.1139 23.8566 10.805 23.994C11.4961 24.1315 12.2123 24.061 12.8633 23.7913C13.5143 23.5217 14.0707 23.0651 14.4621 22.4792C14.8536 21.8934 15.0625 21.2046 15.0625 20.5C15.0625 19.5552 14.6872 18.649 14.0191 17.9809C13.351 17.3128 12.4448 16.9375 11.5 16.9375ZM11.5 22.9375C11.0179 22.9375 10.5466 22.7945 10.1458 22.5267C9.74495 22.2589 9.43253 21.8782 9.24805 21.4328C9.06356 20.9874 9.01529 20.4973 9.10934 20.0245C9.20339 19.5516 9.43554 19.1173 9.77643 18.7764C10.1173 18.4355 10.5516 18.2034 11.0245 18.1093C11.4973 18.0153 11.9874 18.0636 12.4328 18.248C12.8782 18.4325 13.2589 18.745 13.5267 19.1458C13.7945 19.5466 13.9375 20.0179 13.9375 20.5C13.9375 20.8201 13.8745 21.1371 13.752 21.4328C13.6295 21.7285 13.4499 21.9972 13.2236 22.2236C12.9972 22.4499 12.7285 22.6295 12.4328 22.752C12.1371 22.8745 11.8201 22.9375 11.5 22.9375ZM20.5 16.9375C19.7954 16.9375 19.1066 17.1464 18.5208 17.5379C17.9349 17.9293 17.4783 18.4857 17.2087 19.1367C16.939 19.7877 16.8685 20.504 17.006 21.195C17.1434 21.8861 17.4827 22.5208 17.9809 23.0191C18.4792 23.5173 19.1139 23.8566 19.805 23.994C20.496 24.1315 21.2124 24.061 21.8633 23.7913C22.5143 23.5217 23.0707 23.0651 23.4621 22.4792C23.8536 21.8934 24.0625 21.2046 24.0625 20.5C24.0625 19.5552 23.6872 18.649 23.0191 17.9809C22.351 17.3128 21.4448 16.9375 20.5 16.9375ZM20.5 22.9375C20.0179 22.9375 19.5466 22.7945 19.1458 22.5267C18.745 22.2589 18.4325 21.8782 18.248 21.4328C18.0636 20.9874 18.0153 20.4973 18.1093 20.0245C18.2034 19.5516 18.4355 19.1173 18.7764 18.7764C19.1173 18.4355 19.5516 18.2034 20.0245 18.1093C20.4973 18.0153 20.9874 18.0636 21.4328 18.248C21.8782 18.4325 22.2589 18.745 22.5267 19.1458C22.7945 19.5466 22.9375 20.0179 22.9375 20.5C22.9375 21.1465 22.6807 21.7665 22.2236 22.2236C21.7665 22.6807 21.1465 22.9375 20.5 22.9375Z" fill="black"/>
</svg>
