<svg width="32" height="32" viewBox="0 0 32 32" fill="none" xmlns="http://www.w3.org/2000/svg">
<rect width="32" height="32" rx="2" fill="#DCFFF6" fill-opacity="0.56"/>
<path d="M21.25 6.4375H10.75C10.4019 6.4375 10.0681 6.57578 9.82192 6.82192C9.57578 7.06806 9.4375 7.4019 9.4375 7.75V11.125C9.43793 11.3287 9.48557 11.5295 9.57666 11.7117C9.66774 11.8939 9.79981 12.0524 9.9625 12.175L15.0625 16L9.9625 19.825C9.79981 19.9476 9.66774 20.1061 9.57666 20.2883C9.48557 20.4705 9.43793 20.6713 9.4375 20.875V24.25C9.4375 24.5981 9.57578 24.9319 9.82192 25.1781C10.0681 25.4242 10.4019 25.5625 10.75 25.5625H21.25C21.5981 25.5625 21.9319 25.4242 22.1781 25.1781C22.4242 24.9319 22.5625 24.5981 22.5625 24.25V20.9088C22.5619 20.7059 22.5146 20.5059 22.4242 20.3243C22.3338 20.1427 22.2028 19.9843 22.0413 19.8616L16.9375 16L22.0459 12.1384C22.2066 12.0152 22.3367 11.8567 22.4263 11.6751C22.5159 11.4935 22.5625 11.2937 22.5625 11.0912V7.75C22.5625 7.4019 22.4242 7.06806 22.1781 6.82192C21.9319 6.57578 21.5981 6.4375 21.25 6.4375ZM10.75 7.5625H21.25C21.2997 7.5625 21.3474 7.58225 21.3826 7.61742C21.4177 7.65258 21.4375 7.70027 21.4375 7.75V9.4375H10.5625V7.75C10.5625 7.70027 10.5823 7.65258 10.6174 7.61742C10.6526 7.58225 10.7003 7.5625 10.75 7.5625ZM21.4375 20.9088V24.25C21.4375 24.2997 21.4177 24.3474 21.3826 24.3826C21.3474 24.4177 21.2997 24.4375 21.25 24.4375H10.75C10.7003 24.4375 10.6526 24.4177 10.6174 24.3826C10.5823 24.3474 10.5625 24.2997 10.5625 24.25V20.875C10.5625 20.8459 10.5693 20.8172 10.5823 20.7911C10.5953 20.7651 10.6142 20.7425 10.6375 20.725L16 16.7041L21.3644 20.7587C21.3873 20.7764 21.4059 20.7991 21.4185 20.8252C21.4312 20.8512 21.4377 20.8798 21.4375 20.9088ZM21.3634 11.2413L16 15.2959L10.6375 11.275C10.6142 11.2575 10.5953 11.2349 10.5823 11.2089C10.5693 11.1828 10.5625 11.1541 10.5625 11.125V10.5625H21.4375V11.0912C21.4376 11.1203 21.431 11.1489 21.4181 11.175C21.4053 11.201 21.3866 11.2237 21.3634 11.2413Z" fill="#1C1C1C"/>
</svg>
